<?xml version="1.0" encoding="utf-8"?>
<!-- Generator: Adobe Illustrator 19.1.0, SVG Export Plug-In . SVG Version: 6.00 Build 0)  -->
<svg version="1.1" id="Layer_1" xmlns="http://www.w3.org/2000/svg" xmlns:xlink="http://www.w3.org/1999/xlink" x="0px" y="0px"
	 viewBox="0 0 69.5 120.9" style="enable-background:new 0 0 69.5 120.9;" xml:space="preserve">
<style type="text/css">
	.st0{fill:none;stroke:#000000;stroke-width:2;stroke-miterlimit:10;}
</style>
<g>
	<path d="M10.5,117.3c6,1.8,12.3,3.5,18.8,3.5h11.6c6.2,0,12.2-1.6,17.9-3.3l-9.4-8.7H19.6L10.5,117.3z"/>
	<g id="XMLID_12_">
		<g>
			<path d="M49.8,44.1L49.8,44.1l-0.1,0.3V47H19.3v-2.7L19,44.3c5.1-1.7,12.3-7.5,12.3-7.5l0-0.4c0.3,0.1,0.5,0.1,0.8,0.2
				c1.5,0.3,3.4,0.4,5.7,0.1c0.1,0,0.1,0,0.2,0l0,0.2C38.1,36.7,44.8,42.2,49.8,44.1z"/>
			<rect x="35.8" y="23.7" width="3" height="1.4"/>
			<rect x="35.8" y="17" width="3" height="1.8"/>
			<path d="M38.5,14.3h-2.7v-2h-1.5v2h-2.5C34.9,13.5,35.2,0,35.2,0h0C35.2,0.9,35.3,14.3,38.5,14.3z"/>
			<rect x="35.8" y="20.5" width="2.5" height="1.4"/>
			<path d="M37.9,35.8h-5.6c0-2.1,1.3-3.9,2.8-3.9C36.6,31.9,37.8,33.8,37.9,35.8z"/>
			<path d="M35.8,31v0.6h-1.5v-0.5c0.2,0.1,0.4,0.1,0.6,0.1C35.2,31.2,35.5,31.1,35.8,31z"/>
			<path d="M35.8,25.2V31c-0.3,0.1-0.6,0.2-0.9,0.2c-0.2,0-0.4,0-0.6-0.1v-5.9H35.8z"/>
			<rect x="34.3" y="23.7" width="1.5" height="1.4"/>
			<rect x="34.3" y="22" width="1.5" height="1.8"/>
			<rect x="34.3" y="20.5" width="1.5" height="1.4"/>
			<rect x="34.3" y="18.8" width="1.5" height="1.8"/>
			<rect x="34.3" y="17" width="1.5" height="1.8"/>
			<rect x="34.3" y="14.3" width="1.5" height="2.7"/>
			<rect x="34.3" y="12.4" width="1.5" height="2"/>
			<rect x="31.3" y="23.7" width="3" height="1.4"/>
			<rect x="31.8" y="20.5" width="2.5" height="1.4"/>
			<rect x="31.3" y="17" width="3" height="1.8"/>
		</g>
		<g>
			<path class="st0" d="M32.1,27.2c0,1.8,1,3.4,2.2,3.8c0.2,0.1,0.4,0.1,0.6,0.1c0.3,0,0.6-0.1,0.9-0.2c1.1-0.6,1.9-2.1,1.9-3.7"/>
			<path class="st0" d="M29.1,35.6c0,0,0.8,0.4,2.3,0.7c0.3,0.1,0.5,0.1,0.8,0.2c1.5,0.3,3.4,0.4,5.7,0.1c0.1,0,0.1,0,0.2,0
				c1-0.1,2-0.4,3-0.7"/>
			<path class="st0" d="M31.4,36.7c0,0-7.3,5.9-12.3,7.5c-1.4,0.5-2.7,0.6-3.5,0.2"/>
			<path class="st0" d="M38.1,36.7c0,0,6.7,5.5,11.7,7.3v0c1.7,0.6,3.1,0.9,4.1,0.4"/>
			<polyline class="st0" points="19.3,44.4 19.3,47 49.8,47 49.8,44.4 			"/>
		</g>
	</g>
	<g id="XMLID_11_">
		<g>
			<path d="M56,67.9l-0.1,0.4v3.8H13.1v-3.8l-0.4-0.1C19.8,65.9,30,57.6,30,57.6l0.1-0.6c2.2,0.5,5.5,0.9,9.4,0.3l0,0.3
				C39.5,57.6,48.9,65.3,56,67.9z"/>
		</g>
		<g>
			<path class="st0" d="M30,57.6c0,0-10.2,8.3-17.3,10.6c-2,0.7-3.8,0.8-5,0.2"/>
			<path class="st0" d="M39.5,57.6c0,0,9.5,7.7,16.5,10.3c2.3,0.9,4.4,1.2,5.8,0.5"/>
		</g>
	</g>
	<g id="XMLID_10_">
		<g>
			<path d="M62,92.7l-0.1,0.5V98h-55v-4.8l-0.5-0.1c9.1-3,22.3-13.6,22.3-13.6l0.1-0.8c2.8,0.6,7,1.1,12,0.4l0,0.4
				C40.8,79.4,52.9,89.3,62,92.7z"/>
		</g>
		<g>
			<path class="st0" d="M28.6,79.4c0,0-13.1,10.6-22.3,13.6c-2.6,0.8-4.8,1.1-6.4,0.3"/>
			<path class="st0" d="M40.8,79.4c0,0,12.1,9.9,21.2,13.3c3,1.1,5.7,1.6,7.4,0.7"/>
		</g>
	</g>
	<polygon points="47.3,53.9 45.3,53.9 45.3,47.9 25.3,47.9 25.3,53.9 23.3,53.9 23.3,55.9 25.3,55.9 25.3,61.9 45.3,61.9 45.3,55.9 
		47.3,55.9 	"/>
	<polygon points="52.3,101.9 50.3,101.9 50.3,93.9 20.3,93.9 20.3,101.9 17.3,101.9 17.3,103.9 20.3,103.9 20.3,108.9 50.3,108.9 
		50.3,103.9 52.3,103.9 	"/>
	<polygon points="49.3,76.9 47.3,76.9 47.3,69.9 22.3,69.9 22.3,76.9 20.3,76.9 20.3,77.9 22.3,77.9 22.3,83.9 47.3,83.9 47.3,77.9 
		49.3,77.9 	"/>
	<rect x="23.3" y="53.9" width="24" height="2"/>
</g>
</svg>
